/* XPM */
static char *wifi_radar[] = {
/* columns rows colors chars-per-pixel */
"32 32 2 1",
"  c black",
". c None",
/* pixels */
"................................",
"................................",
"................................",
"................................",
"................................",
"...........          ...........",
".........              .........",
"........                ........",
".......      .......      ......",
"......     ...........     .....",
".....    ..............    .....",
"....    ....        ....    ....",
"...    ...            ...    ...",
"...    ..    ......    ...    ..",
"..    ..   ..........   ..    ..",
"..   ..   ............   ..    .",
".    ..  ..............   .    .",
".   ..   ....      .....  ..   .",
".. ..   .... ......  ...   .. ..",
".....  .... ........  ...  .....",
".....  ... .......... ...  .....",
"......... ............ .........",
"......... ............ .........",
"................................",
"................................",
"................................",
"................................",
"................................",
"................................",
"................................",
"................................",
"................................"
};
